<?xml version="1.0" encoding="iso-8859-1"?>
<!-- Generator: Adobe Illustrator 19.0.0, SVG Export Plug-In . SVG Version: 6.00 Build 0)  -->
<svg version="1.1" id="Capa_1" xmlns="http://www.w3.org/2000/svg" xmlns:xlink="http://www.w3.org/1999/xlink" x="0px" y="0px"
	 viewBox="0 0 512 512" style="enable-background:new 0 0 512 512;" xml:space="preserve">
<g>
	<g>
		<path d="M471.434,58.327C471.214,26.129,444.96,0,412.711,0H99.289C67.04,0,40.786,26.128,40.566,58.327
			c-0.001,0.069-0.01,0.135-0.01,0.204v38.962c0,0.219,0.007,0.436,0.021,0.651c-0.014,0.448-0.021,0.897-0.021,1.349
			c0,32.386,26.348,58.733,58.733,58.733h105.446v15.912c-16.084,14.601-25.675,35.063-26.859,57.329
			c-2.205-2.577-4.575-5.028-7.111-7.33V200.03c0-13.656-11.109-24.766-24.766-24.766H93.002c-13.655,0-24.765,11.109-24.765,24.766
			v24.107c-17.208,15.621-26.985,37.95-26.985,62.019V502c0,5.522,4.478,10,10,10c5.522,0,10-4.478,10-10v-70.019h116.499V502
			c0,5.522,4.477,10,10,10c5.522,0,10-4.478,10-10v-70.019h116.498V502c0,5.522,4.478,10,10,10c5.523,0,10-4.478,10-10v-70.019
			h46.71c5.522,0,10-4.478,10-10c0-5.522-4.478-10-10-10h-46.71V286.156c0-10.556,2.441-20.654,6.985-29.582v4.149V312.7
			c0,5.234,0.923,10.324,2.749,15.189c0.609,1.623,1.318,3.22,2.127,4.79c0.65,1.261,1.374,2.5,2.151,3.711
			c0.46,0.718,0.935,1.429,1.435,2.122c0.586,0.811,1.207,1.597,1.845,2.37c2.515,3.053,5.41,5.81,8.663,8.219
			c0.583,0.432,1.177,0.853,1.783,1.263c0.006,0.004,0.012,0.007,0.018,0.011c0.934,0.632,1.913,1.249,2.912,1.832
			c0.001,0,0.001,0.001,0.002,0.001c0.001,0,0.002,0.001,0.003,0.002c0.166,0.097,0.336,0.187,0.503,0.282
			c0.844,0.48,1.703,0.945,2.566,1.374c1.039,0.518,2.115,1.009,3.208,1.466c1.086,0.452,2.199,0.874,3.308,1.253
			c1.127,0.386,2.281,0.738,3.426,1.047c4.709,1.271,9.61,1.917,14.566,1.917s9.857-0.646,14.56-1.915
			c1.148-0.31,2.303-0.662,3.428-1.048c1.112-0.38,2.228-0.803,3.32-1.258c1.08-0.451,2.156-0.942,3.2-1.462
			c0.523-0.261,1.042-0.529,1.548-0.803c1.529-0.824,3.03-1.734,4.458-2.701c1.909-1.292,3.735-2.719,5.425-4.236
			c0.639-0.574,1.265-1.166,1.873-1.772c0.608-0.606,1.196-1.224,1.759-1.849c0.382-0.423,0.756-0.853,1.13-1.298
			c0.547-0.652,1.075-1.318,1.584-1.996c0.007-0.009,0.015-0.018,0.021-0.027c0.347-0.463,0.672-0.939,1-1.413
			c0.16-0.231,0.332-0.456,0.488-0.69c0.08-0.12,0.151-0.245,0.23-0.366c0.857-1.311,1.653-2.656,2.366-4.036
			c0.98-1.904,1.796-3.852,2.483-5.832c1.578-4.551,2.393-9.284,2.393-14.147v-56.124c4.544,8.927,6.984,19.026,6.984,29.58V502
			c0,5.522,4.478,10,10,10c5.523,0,10-4.478,10-10V286.156c0-24.069-9.777-46.397-26.985-62.019V200.03
			c0-13.656-11.109-24.766-24.765-24.766H366c-13.656,0-24.766,11.109-24.766,24.766v24.108c-2.536,2.302-4.906,4.752-7.111,7.33
			c-1.183-22.266-10.775-42.728-26.859-57.329v-15.912H412.71c32.386,0,58.733-26.348,58.733-58.733c0-0.45-0.008-0.899-0.021-1.347
			c0.015-0.216,0.021-0.434,0.021-0.653v-38.75c0-0.001,0-0.002,0-0.003c0-0.002,0-0.004,0-0.007c0-0.002,0-0.004,0-0.007
			c0-0.001,0-0.002,0-0.003v-0.193h0.001C471.444,58.462,471.435,58.396,471.434,58.327z M88.237,200.03
			c0-2.628,2.138-4.766,4.765-4.766H146c2.628,0,4.766,2.138,4.766,4.766v23.549c-0.249-0.175-0.5-0.349-0.753-0.52
			c-0.949-0.643-1.936-1.263-2.935-1.846c-1.007-0.587-2.041-1.145-3.078-1.661c-1.055-0.523-2.131-1.015-3.19-1.456
			c-1.085-0.453-2.2-0.876-3.316-1.258c-1.127-0.386-2.281-0.738-3.428-1.047c-9.426-2.545-19.708-2.543-29.124-0.002
			c-1.148,0.31-2.303,0.662-3.428,1.048c-1.12,0.382-2.238,0.807-3.312,1.255c-1.064,0.444-2.14,0.934-3.225,1.473
			c-0.519,0.259-1.032,0.524-1.538,0.798c-1.534,0.828-3.033,1.737-4.455,2.7c-0.251,0.17-0.5,0.342-0.747,0.516V200.03z
			 M88.233,260.722c0.004-3.759,0.897-7.399,2.657-10.812c0.876-1.698,1.963-3.325,3.235-4.841c0.212-0.253,0.431-0.504,0.65-0.748
			c0.669-0.741,1.392-1.461,2.15-2.144c1.013-0.909,2.115-1.77,3.275-2.556c0.871-0.59,1.793-1.148,2.742-1.661
			c0.322-0.174,0.648-0.342,0.949-0.492c0.665-0.33,1.339-0.638,2.013-0.919c0.678-0.283,1.377-0.548,2.081-0.789
			c0.71-0.242,1.436-0.465,2.161-0.66c6.029-1.627,12.673-1.629,18.712,0.002c0.724,0.194,1.45,0.416,2.157,0.658
			c0.703,0.24,1.403,0.507,2.093,0.795c0.663,0.275,1.334,0.582,1.992,0.908c0.637,0.317,1.276,0.662,1.897,1.024
			c0.615,0.359,1.224,0.742,1.805,1.136c2.895,1.959,5.347,4.315,7.287,7c0.761,1.054,1.44,2.157,2.02,3.283
			c1.762,3.418,2.654,7.057,2.654,10.816V312.7c0,0.47-0.014,0.938-0.042,1.404c-0.195,3.262-1.072,6.423-2.613,9.413
			c-0.204,0.396-0.423,0.788-0.65,1.176c-0.281,0.479-0.579,0.951-0.893,1.416c-0.52,0.769-1.082,1.519-1.69,2.243
			c-0.12,0.144-0.247,0.286-0.372,0.428c-0.093,0.106-0.182,0.213-0.279,0.32c-0.208,0.231-0.429,0.455-0.647,0.681
			c-0.485,0.503-0.983,0.996-1.503,1.464c-1.016,0.912-2.117,1.771-3.275,2.555c-0.881,0.596-1.802,1.154-2.734,1.657
			c-0.317,0.171-0.638,0.338-0.972,0.504c-0.645,0.321-1.316,0.628-1.987,0.907c-0.688,0.287-1.392,0.554-2.093,0.794
			c-0.707,0.242-1.434,0.464-2.164,0.66c-6.019,1.627-12.677,1.629-18.71-0.002c-0.721-0.193-1.446-0.416-2.16-0.659
			c-0.699-0.239-1.401-0.506-2.08-0.789c-0.679-0.283-1.353-0.591-1.997-0.911c-0.645-0.321-1.284-0.666-1.905-1.028
			c-0.627-0.367-1.23-0.746-1.801-1.134c-2.895-1.959-5.347-4.315-7.289-7.003c-0.758-1.048-1.438-2.153-2.019-3.279
			c-0.411-0.797-0.77-1.607-1.086-2.427c-0.023-0.059-0.05-0.117-0.073-0.177c-0.994-2.641-1.496-5.394-1.496-8.214V260.722z
			 M177.75,411.982H61.252v-0.001V286.156c0-10.554,2.44-20.653,6.984-29.58V312.7c0,6.106,1.256,12.016,3.739,17.606
			c0.355,0.799,0.735,1.592,1.14,2.378c0.391,0.758,0.813,1.504,1.249,2.243c0.724,1.227,1.5,2.429,2.336,3.585
			c0.414,0.574,0.842,1.138,1.281,1.692c3.078,3.881,6.771,7.291,10.996,10.152c0.937,0.635,1.927,1.258,2.942,1.851
			c0.999,0.583,2.033,1.142,3.078,1.661c1.039,0.518,2.115,1.009,3.201,1.462c1.087,0.453,2.202,0.876,3.311,1.255
			c1.129,0.387,2.283,0.739,3.425,1.047c4.709,1.271,9.61,1.917,14.566,1.917s9.857-0.646,14.56-1.915
			c1.151-0.311,2.306-0.663,3.433-1.049c1.108-0.379,2.222-0.801,3.316-1.257c1.084-0.453,2.16-0.944,3.19-1.457
			c0.524-0.261,1.042-0.53,1.558-0.808c1.529-0.824,3.03-1.734,4.458-2.701c1.909-1.292,3.735-2.719,5.425-4.236
			c1.275-1.146,2.5-2.365,3.632-3.621c0.386-0.427,0.763-0.861,1.129-1.298c2.224-2.649,4.137-5.518,5.688-8.527l0.001-0.001
			c0.059-0.115,0.109-0.233,0.167-0.348c2.455-4.865,3.949-9.992,4.477-15.295c0.143-1.434,0.231-2.877,0.231-4.335v-51.977v-4.149
			c4.545,8.928,6.985,19.026,6.985,29.582V411.982z M361.234,200.03c0-2.628,2.138-4.766,4.766-4.766h52.998
			c2.627,0,4.765,2.138,4.765,4.766v23.549c-0.247-0.174-0.497-0.346-0.748-0.517c-0.951-0.644-1.94-1.266-2.934-1.846
			c-0.999-0.583-2.033-1.142-3.086-1.666c-1.057-0.523-2.132-1.014-3.185-1.452c-1.085-0.454-2.203-0.879-3.319-1.26
			c-1.129-0.387-2.283-0.739-3.427-1.047c-9.426-2.545-19.708-2.543-29.124-0.002c-1.151,0.311-2.306,0.663-3.433,1.049
			c-1.116,0.382-2.231,0.805-3.308,1.254c-1.068,0.445-2.145,0.936-3.216,1.469c-0.52,0.259-1.031,0.524-1.547,0.802
			c-1.534,0.828-3.033,1.737-4.455,2.7c-0.251,0.17-0.5,0.342-0.747,0.516V200.03z M361.233,260.723
			c0-3.76,0.893-7.398,2.654-10.816c0.873-1.694,1.96-3.321,3.233-4.838c0.212-0.253,0.431-0.504,0.646-0.744
			c0.676-0.748,1.399-1.469,2.154-2.147c1.013-0.909,2.115-1.77,3.275-2.556c0.871-0.59,1.793-1.148,2.733-1.656
			c0.323-0.174,0.649-0.343,0.963-0.499c0.662-0.329,1.333-0.636,2.005-0.915c0.681-0.284,1.381-0.551,2.084-0.791
			c0.707-0.242,1.434-0.464,2.162-0.66c6.029-1.627,12.673-1.629,18.712,0.002c0.721,0.193,1.446,0.416,2.16,0.659
			c0.7,0.24,1.399,0.505,2.089,0.794c0.662,0.275,1.336,0.583,1.988,0.906c0.646,0.321,1.285,0.666,1.906,1.029
			c0.612,0.357,1.218,0.737,1.8,1.133c2.895,1.959,5.347,4.315,7.289,7.003c0.758,1.048,1.438,2.152,2.02,3.28
			c1.761,3.416,2.653,7.056,2.653,10.816V312.7c0,2.35-0.349,4.653-1.04,6.883c-0.415,1.338-0.953,2.651-1.613,3.932
			c-0.87,1.695-1.956,3.32-3.227,4.835c-0.212,0.252-0.427,0.501-0.658,0.756c-0.05,0.056-0.106,0.109-0.157,0.165
			c-0.625,0.681-1.29,1.345-1.991,1.976c-1.017,0.912-2.117,1.772-3.275,2.556c-0.874,0.592-1.793,1.149-2.736,1.658
			c-0.32,0.172-0.642,0.34-0.963,0.5c-0.649,0.322-1.323,0.63-1.996,0.911c-0.685,0.285-1.387,0.552-2.09,0.792
			c-0.71,0.242-1.436,0.465-2.163,0.66c-6.02,1.627-12.677,1.629-18.71-0.002c-0.724-0.194-1.45-0.416-2.157-0.658
			c-0.701-0.24-1.405-0.507-2.084-0.79c-0.68-0.283-1.351-0.59-2.001-0.913c-0.637-0.317-1.276-0.663-1.897-1.025
			c-0.615-0.359-1.224-0.742-1.805-1.136c-2.895-1.959-5.347-4.315-7.287-7c-0.761-1.054-1.44-2.158-2.02-3.282
			c-0.847-1.644-1.488-3.34-1.931-5.075c-0.018-0.069-0.04-0.137-0.057-0.206c-0.09-0.365-0.164-0.733-0.236-1.102
			c-0.017-0.087-0.04-0.173-0.056-0.261c-0.167-0.914-0.278-1.838-0.334-2.77c-0.028-0.466-0.042-0.934-0.042-1.404V260.723z
			 M60.614,60.784c-0.016-0.306-0.018-0.616-0.026-0.924c-0.01-0.359-0.027-0.716-0.027-1.078c0.002-0.075,0.003-0.15,0.003-0.225
			C60.658,37.279,77.992,20,99.289,20h313.422c16.522,0,30.655,10.403,36.21,25H135.167c-5.523,0-10,4.478-10,10s4.478,10,10,10
			H450.93c-0.043,0.265-0.093,0.527-0.141,0.79c-0.046,0.247-0.083,0.497-0.133,0.743c-0.074,0.359-0.163,0.712-0.247,1.068
			c-0.063,0.268-0.118,0.538-0.186,0.804c-0.086,0.331-0.186,0.656-0.28,0.983c-0.082,0.285-0.156,0.572-0.243,0.854
			c-0.08,0.255-0.172,0.505-0.257,0.757c-0.116,0.348-0.227,0.699-0.354,1.042c-0.055,0.151-0.12,0.298-0.177,0.448
			c-0.168,0.439-0.335,0.879-0.518,1.31c-0.029,0.069-0.063,0.135-0.092,0.204c-5.441,12.631-17.411,21.814-31.637,23.263
			c-0.169,0.017-0.341,0.024-0.51,0.039c-1.136,0.101-2.282,0.161-3.444,0.161H99.289c-0.667,0-1.33-0.017-1.988-0.05
			c-0.213-0.011-0.422-0.034-0.633-0.048c-0.445-0.03-0.89-0.057-1.33-0.102c-0.203-0.021-0.403-0.053-0.605-0.077
			c-0.445-0.052-0.89-0.102-1.329-0.169c-0.21-0.032-0.416-0.076-0.625-0.112c-0.427-0.073-0.856-0.142-1.278-0.229
			c-0.227-0.047-0.449-0.105-0.675-0.156c-0.4-0.09-0.801-0.175-1.197-0.277c-0.226-0.058-0.447-0.128-0.671-0.19
			c-0.389-0.108-0.78-0.212-1.164-0.331c-0.222-0.069-0.438-0.15-0.657-0.222c-0.382-0.126-0.765-0.249-1.141-0.387
			c-0.213-0.078-0.421-0.167-0.632-0.249c-0.376-0.146-0.754-0.287-1.125-0.444c-0.219-0.093-0.432-0.196-0.649-0.293
			c-0.356-0.159-0.715-0.313-1.065-0.482c-0.213-0.103-0.42-0.216-0.631-0.323c-0.347-0.175-0.697-0.347-1.039-0.533
			c-0.202-0.11-0.398-0.23-0.598-0.343c-0.343-0.194-0.688-0.385-1.023-0.589c-0.193-0.117-0.379-0.244-0.57-0.365
			c-0.335-0.212-0.673-0.421-1.001-0.642c-0.189-0.128-0.371-0.265-0.558-0.396c-0.322-0.226-0.646-0.448-0.96-0.683
			c-0.188-0.141-0.369-0.291-0.555-0.435c-0.304-0.236-0.611-0.469-0.907-0.713c-0.189-0.156-0.37-0.321-0.556-0.48
			c-0.284-0.244-0.572-0.484-0.849-0.736c-0.184-0.167-0.359-0.343-0.54-0.513c-0.27-0.255-0.543-0.506-0.805-0.768
			c-0.178-0.178-0.347-0.365-0.522-0.546c-0.255-0.265-0.513-0.526-0.761-0.798c-0.173-0.189-0.336-0.387-0.504-0.58
			c-0.239-0.273-0.482-0.544-0.714-0.824c-0.168-0.203-0.326-0.414-0.49-0.621c-0.221-0.279-0.447-0.554-0.66-0.839
			c-0.162-0.216-0.313-0.439-0.47-0.658c-0.205-0.285-0.414-0.568-0.611-0.859c-0.152-0.225-0.294-0.457-0.441-0.685
			c-0.19-0.294-0.385-0.585-0.567-0.884c-0.147-0.241-0.283-0.489-0.424-0.733c-0.171-0.294-0.346-0.586-0.509-0.885
			c-0.14-0.257-0.269-0.522-0.404-0.783c-0.152-0.294-0.309-0.585-0.453-0.884c-0.13-0.268-0.248-0.543-0.371-0.815
			c-0.136-0.299-0.278-0.594-0.406-0.897c-0.117-0.275-0.221-0.556-0.332-0.834c-0.122-0.307-0.25-0.611-0.364-0.922
			c-0.105-0.284-0.196-0.574-0.294-0.861c-0.106-0.311-0.218-0.62-0.317-0.934c-0.091-0.291-0.169-0.588-0.254-0.883
			c-0.091-0.317-0.188-0.632-0.271-0.952c-0.077-0.296-0.14-0.597-0.21-0.895c-0.076-0.324-0.158-0.647-0.225-0.974
			c-0.062-0.299-0.11-0.602-0.165-0.904c-0.061-0.333-0.127-0.664-0.179-1c-0.047-0.301-0.079-0.607-0.119-0.91
			c-0.044-0.341-0.095-0.68-0.13-1.023c-0.032-0.307-0.049-0.617-0.073-0.926C60.665,61.475,60.632,61.131,60.614,60.784z
			 M314.249,236.156v175.825H197.751V286.156v-50c0-10.555,2.44-20.654,6.984-29.581v4.148V262.7c0,5.234,0.923,10.324,2.75,15.192
			c0.609,1.623,1.319,3.222,2.129,4.793c0.402,0.779,0.836,1.546,1.286,2.305c0.423,0.714,0.859,1.422,1.32,2.113
			c0.318,0.476,0.644,0.946,0.979,1.409c0.317,0.439,0.648,0.866,0.98,1.294c3.137,4.043,6.928,7.592,11.301,10.553
			c0.942,0.638,1.93,1.26,2.942,1.851c1.007,0.587,2.041,1.146,3.069,1.656c1.032,0.514,2.107,1.005,3.208,1.466
			c1.086,0.452,2.199,0.874,3.312,1.254c1.13,0.387,2.283,0.739,3.422,1.046c4.709,1.271,9.61,1.917,14.566,1.917
			c4.956,0,9.857-0.646,14.56-1.915c1.146-0.309,2.299-0.661,3.433-1.049c1.108-0.379,2.222-0.801,3.319-1.259
			c1.089-0.455,2.164-0.946,3.196-1.46c0.52-0.259,1.036-0.526,1.552-0.805c1.526-0.823,3.025-1.731,4.455-2.699
			c1.349-0.913,2.635-1.912,3.883-2.946c0.518-0.429,1.047-0.847,1.545-1.294c0.609-0.547,1.204-1.113,1.784-1.689
			c0.638-0.633,1.26-1.28,1.856-1.941c0.381-0.423,0.756-0.854,1.118-1.286c1.605-1.912,3.042-3.942,4.303-6.053
			c0.05-0.083,0.105-0.163,0.154-0.246c0.033-0.055,0.061-0.113,0.093-0.169c0.396-0.679,0.779-1.365,1.137-2.06
			c1.133-2.198,2.058-4.453,2.798-6.751c1.374-4.268,2.079-8.693,2.079-13.229v-51.977v-4.148
			C311.809,215.502,314.249,225.602,314.249,236.156z M287.265,173.58c-0.249-0.175-0.5-0.349-0.753-0.52
			c-0.953-0.645-1.94-1.266-2.931-1.843c-1.006-0.587-2.041-1.146-3.082-1.664c-1.049-0.521-2.124-1.011-3.19-1.456
			c-1.085-0.453-2.2-0.876-3.32-1.259c-1.13-0.387-2.283-0.739-3.424-1.046c-9.426-2.545-19.708-2.543-29.124-0.002
			c-1.145,0.309-2.299,0.661-3.433,1.049c-1.116,0.382-2.231,0.805-3.311,1.256c-1.072,0.447-2.147,0.938-3.221,1.471
			c-0.519,0.259-1.032,0.524-1.538,0.798c-1.531,0.827-3.029,1.734-4.456,2.7c-0.251,0.17-0.5,0.342-0.747,0.516v-23.55
			c0-0.272,0.036-0.535,0.08-0.795c0.022-0.125,0.051-0.247,0.081-0.369c0.046-0.182,0.099-0.36,0.166-0.533
			c0.039-0.102,0.081-0.201,0.126-0.299c0.084-0.18,0.178-0.354,0.283-0.521c0.052-0.083,0.104-0.165,0.16-0.244
			c0.118-0.165,0.248-0.319,0.385-0.467c0.065-0.07,0.128-0.141,0.197-0.207c0.144-0.138,0.301-0.262,0.461-0.381
			c0.08-0.059,0.156-0.122,0.24-0.176c0.164-0.107,0.34-0.195,0.517-0.281c0.094-0.045,0.182-0.098,0.279-0.137
			c0.189-0.077,0.39-0.131,0.59-0.184c0.094-0.024,0.182-0.06,0.278-0.079c0.299-0.059,0.607-0.093,0.923-0.093h52.998
			c0.316,0,0.624,0.035,0.923,0.093c0.096,0.019,0.184,0.055,0.278,0.079c0.2,0.053,0.401,0.106,0.59,0.184
			c0.097,0.039,0.186,0.092,0.279,0.137c0.177,0.086,0.353,0.174,0.517,0.281c0.083,0.054,0.16,0.117,0.24,0.176
			c0.16,0.119,0.317,0.243,0.461,0.381c0.069,0.066,0.132,0.137,0.197,0.207c0.137,0.148,0.268,0.302,0.385,0.467
			c0.057,0.079,0.109,0.161,0.16,0.244c0.105,0.167,0.199,0.341,0.283,0.521c0.045,0.098,0.088,0.197,0.126,0.299
			c0.066,0.173,0.12,0.351,0.166,0.533c0.031,0.122,0.06,0.244,0.081,0.37c0.044,0.26,0.08,0.523,0.08,0.795V173.58z
			 M287.268,210.724V262.7c0,0.47-0.014,0.938-0.042,1.404c-0.12,1.957-0.489,3.876-1.093,5.746
			c-0.403,1.246-0.907,2.471-1.523,3.668c-0.654,1.269-1.428,2.5-2.311,3.677c-0.292,0.389-0.596,0.771-0.91,1.146
			c-0.214,0.255-0.432,0.507-0.662,0.762c-0.669,0.741-1.392,1.462-2.147,2.141c-1.021,0.917-2.122,1.776-3.274,2.557
			c-0.504,0.341-1.025,0.666-1.552,0.98c-0.394,0.235-0.79,0.465-1.194,0.683c-0.316,0.171-0.638,0.338-0.962,0.499
			c-0.641,0.319-1.314,0.626-1.987,0.907c-0.688,0.287-1.392,0.554-2.089,0.793c-0.714,0.243-1.44,0.466-2.168,0.661
			c-6.02,1.627-12.677,1.629-18.71-0.002c-0.721-0.193-1.447-0.416-2.157-0.658c-0.701-0.24-1.405-0.507-2.081-0.788
			c-0.686-0.287-1.358-0.594-2.004-0.915c-0.638-0.317-1.275-0.662-1.901-1.027c-0.611-0.356-1.219-0.738-1.8-1.132
			c-2.895-1.96-5.347-4.316-7.289-7.004c-0.455-0.629-0.87-1.282-1.264-1.944c-0.263-0.442-0.522-0.885-0.755-1.336
			c-0.326-0.632-0.611-1.273-0.877-1.919c-0.993-2.413-1.581-4.92-1.735-7.493c-0.028-0.466-0.042-0.934-0.042-1.404v-51.977
			c0-3.76,0.894-7.398,2.654-10.816c0.873-1.694,1.96-3.321,3.223-4.824c0.217-0.259,0.438-0.513,0.662-0.762
			c0.669-0.741,1.392-1.462,2.148-2.141c1.018-0.914,2.12-1.774,3.274-2.557c0.874-0.591,1.798-1.151,2.746-1.663
			c0.322-0.174,0.648-0.342,0.953-0.494c0.658-0.327,1.33-0.634,2.005-0.915c0.681-0.284,1.381-0.551,2.08-0.79
			c0.714-0.243,1.44-0.466,2.166-0.661c6.029-1.627,12.673-1.629,18.712,0.002c0.721,0.193,1.447,0.416,2.157,0.658
			c0.703,0.24,1.403,0.507,2.09,0.793c0.669,0.279,1.341,0.586,1.995,0.91c0.638,0.317,1.275,0.662,1.901,1.027
			c0.611,0.357,1.219,0.738,1.8,1.132c2.895,1.96,5.347,4.316,7.289,7.004c0.758,1.048,1.438,2.152,2.02,3.28
			C286.375,203.326,287.268,206.965,287.268,210.724z M412.711,138.227H304.274c-0.124-0.228-0.262-0.446-0.393-0.669
			c-0.086-0.147-0.169-0.295-0.258-0.44c-0.156-0.254-0.317-0.503-0.481-0.75c-0.09-0.136-0.183-0.271-0.276-0.405
			c-0.561-0.81-1.169-1.584-1.82-2.319c-0.115-0.13-0.23-0.261-0.348-0.388c-0.191-0.207-0.385-0.411-0.583-0.612
			c-0.142-0.144-0.288-0.283-0.433-0.423c-0.278-0.268-0.561-0.53-0.852-0.785c-0.219-0.193-0.439-0.385-0.665-0.57
			c-0.173-0.142-0.351-0.278-0.528-0.415c-0.217-0.168-0.437-0.333-0.66-0.494c-0.164-0.119-0.328-0.238-0.495-0.352
			c-0.369-0.253-0.743-0.499-1.125-0.732c-0.085-0.052-0.172-0.1-0.258-0.15c-0.35-0.208-0.705-0.406-1.065-0.597
			c-0.133-0.07-0.267-0.138-0.401-0.205c-0.348-0.176-0.701-0.344-1.058-0.504c-0.098-0.044-0.195-0.09-0.293-0.133
			c-0.461-0.199-0.929-0.385-1.404-0.556c-0.071-0.026-0.144-0.048-0.215-0.073c-0.41-0.144-0.824-0.276-1.243-0.398
			c-0.118-0.035-0.237-0.068-0.356-0.101c-0.444-0.122-0.893-0.234-1.347-0.332c-0.048-0.01-0.096-0.023-0.144-0.033
			c-0.501-0.105-1.009-0.192-1.522-0.266c-0.12-0.017-0.24-0.031-0.36-0.046c-0.399-0.052-0.8-0.093-1.205-0.126
			c-0.143-0.011-0.286-0.024-0.429-0.033c-0.516-0.032-1.035-0.054-1.559-0.054H229.5c-0.524,0-1.043,0.022-1.559,0.054
			c-0.144,0.009-0.286,0.021-0.429,0.033c-0.404,0.032-0.806,0.074-1.205,0.126c-0.12,0.015-0.241,0.029-0.361,0.046
			c-0.512,0.074-1.02,0.161-1.521,0.266c-0.048,0.01-0.096,0.023-0.144,0.033c-0.454,0.098-0.902,0.21-1.346,0.332
			c-0.119,0.033-0.237,0.067-0.356,0.101c-0.419,0.122-0.834,0.254-1.243,0.398c-0.071,0.025-0.144,0.047-0.215,0.073
			c-0.475,0.171-0.943,0.357-1.404,0.556c-0.098,0.042-0.194,0.089-0.292,0.132c-0.358,0.16-0.711,0.328-1.059,0.504
			c-0.134,0.068-0.268,0.135-0.401,0.205c-0.36,0.191-0.716,0.389-1.065,0.597c-0.086,0.051-0.173,0.098-0.258,0.15
			c-0.383,0.233-0.757,0.479-1.125,0.732c-0.167,0.115-0.331,0.234-0.495,0.352c-0.223,0.161-0.443,0.326-0.66,0.494
			c-0.177,0.137-0.355,0.273-0.528,0.415c-0.226,0.185-0.445,0.377-0.665,0.57c-0.29,0.255-0.573,0.517-0.852,0.785
			c-0.145,0.14-0.291,0.279-0.432,0.423c-0.198,0.2-0.392,0.404-0.583,0.612c-0.118,0.128-0.233,0.258-0.348,0.388
			c-0.65,0.735-1.258,1.508-1.819,2.318c-0.093,0.135-0.186,0.27-0.277,0.407c-0.164,0.247-0.326,0.496-0.481,0.75
			c-0.089,0.145-0.172,0.293-0.258,0.44c-0.131,0.223-0.269,0.441-0.393,0.669H99.289c-20.181,0-36.806-15.513-38.577-35.24
			c0.225,0.197,0.461,0.382,0.689,0.575c0.299,0.253,0.597,0.505,0.9,0.752c0.405,0.329,0.818,0.65,1.232,0.968
			c0.302,0.232,0.601,0.467,0.908,0.694c0.44,0.326,0.89,0.639,1.34,0.953c0.291,0.203,0.579,0.411,0.874,0.609
			c0.512,0.344,1.035,0.672,1.558,1c0.244,0.153,0.483,0.313,0.729,0.462c0.771,0.467,1.553,0.919,2.346,1.351
			c0.147,0.08,0.299,0.152,0.446,0.231c0.653,0.348,1.31,0.69,1.978,1.014c0.296,0.144,0.599,0.276,0.898,0.415
			c0.528,0.245,1.056,0.491,1.592,0.721c0.341,0.146,0.687,0.282,1.031,0.422c0.504,0.205,1.009,0.409,1.521,0.601
			c0.364,0.136,0.733,0.264,1.1,0.393c0.501,0.176,1.003,0.349,1.51,0.512c0.38,0.122,0.763,0.238,1.146,0.352
			c0.505,0.151,1.013,0.296,1.524,0.434c0.389,0.105,0.779,0.206,1.171,0.303c0.516,0.127,1.035,0.246,1.557,0.36
			c0.393,0.086,0.786,0.171,1.182,0.249c0.534,0.105,1.071,0.198,1.61,0.288c0.389,0.065,0.777,0.133,1.168,0.19
			c0.566,0.083,1.137,0.151,1.709,0.218c0.37,0.043,0.738,0.092,1.11,0.129c0.635,0.062,1.274,0.104,1.915,0.146
			c0.315,0.02,0.627,0.05,0.943,0.065c0.958,0.047,1.922,0.073,2.892,0.073h313.422c0.97,0,1.933-0.027,2.892-0.073
			c0.317-0.015,0.63-0.045,0.945-0.066c0.639-0.041,1.278-0.084,1.911-0.146c0.374-0.036,0.743-0.086,1.115-0.129
			c0.57-0.067,1.139-0.134,1.704-0.217c0.393-0.058,0.783-0.126,1.174-0.191c0.537-0.09,1.072-0.183,1.604-0.287
			c0.398-0.078,0.794-0.164,1.189-0.25c0.518-0.113,1.035-0.231,1.548-0.358c0.396-0.098,0.789-0.2,1.182-0.305
			c0.506-0.136,1.008-0.28,1.509-0.429c0.389-0.116,0.777-0.234,1.163-0.357c0.5-0.161,0.994-0.331,1.488-0.505
			c0.375-0.132,0.751-0.262,1.122-0.401c0.502-0.188,0.997-0.388,1.493-0.59c0.353-0.144,0.709-0.283,1.059-0.433
			c0.521-0.224,1.034-0.462,1.547-0.701c0.314-0.146,0.631-0.284,0.942-0.435c0.632-0.307,1.254-0.632,1.873-0.961
			c0.182-0.097,0.369-0.186,0.551-0.285c0.789-0.43,1.566-0.878,2.332-1.342c0.272-0.165,0.535-0.341,0.804-0.51
			c0.496-0.312,0.993-0.623,1.479-0.949c0.315-0.211,0.622-0.433,0.933-0.65c0.429-0.3,0.858-0.599,1.279-0.91
			c0.323-0.239,0.638-0.485,0.956-0.73c0.396-0.306,0.792-0.612,1.18-0.928c0.319-0.259,0.633-0.525,0.947-0.791
			c0.218-0.185,0.443-0.363,0.659-0.551C449.517,122.713,432.892,138.227,412.711,138.227z"/>
	</g>
</g>
<g>
	<g>
		<path d="M427.369,420.029c-0.129-0.639-0.319-1.269-0.569-1.869c-0.25-0.61-0.56-1.19-0.92-1.73c-0.36-0.55-0.78-1.06-1.24-1.52
			c-0.46-0.46-0.97-0.881-1.52-1.24c-0.54-0.36-1.13-0.67-1.73-0.92c-0.6-0.25-1.229-0.44-1.87-0.57c-1.29-0.26-2.62-0.26-3.91,0
			c-0.64,0.13-1.27,0.32-1.869,0.57c-0.601,0.25-1.181,0.56-1.721,0.92c-0.55,0.359-1.06,0.78-1.52,1.24
			c-1.87,1.859-2.931,4.439-2.931,7.069c0,0.65,0.061,1.311,0.19,1.96c0.13,0.63,0.32,1.261,0.57,1.87
			c0.25,0.601,0.559,1.181,0.92,1.72c0.37,0.551,0.78,1.061,1.25,1.521c0.46,0.46,0.97,0.88,1.52,1.24
			c0.54,0.359,1.12,0.67,1.721,0.92c0.6,0.25,1.229,0.45,1.869,0.569c0.65,0.131,1.301,0.2,1.95,0.2c0.66,0,1.31-0.069,1.96-0.2
			c0.641-0.119,1.271-0.319,1.87-0.569c0.601-0.25,1.191-0.561,1.73-0.92c0.55-0.36,1.06-0.78,1.52-1.24
			c0.46-0.46,0.88-0.97,1.24-1.521c0.36-0.539,0.67-1.119,0.92-1.72c0.25-0.609,0.44-1.24,0.57-1.87
			c0.13-0.65,0.199-1.31,0.199-1.96C427.568,421.33,427.499,420.669,427.369,420.029z"/>
	</g>
</g>
<g>
	<g>
		<path d="M108.359,53.051c-0.13-0.64-0.319-1.27-0.569-1.88c-0.25-0.601-0.561-1.18-0.92-1.72c-0.36-0.551-0.78-1.061-1.24-1.521
			s-0.97-0.88-1.521-1.24c-0.54-0.37-1.119-0.67-1.729-0.92c-0.6-0.25-1.23-0.45-1.87-0.58c-1.29-0.26-2.61-0.26-3.9,0
			c-0.64,0.13-1.27,0.33-1.88,0.58c-0.6,0.25-1.18,0.55-1.72,0.92c-0.55,0.36-1.06,0.78-1.52,1.24c-0.46,0.46-0.881,0.97-1.25,1.521
			c-0.36,0.54-0.671,1.119-0.921,1.72c-0.25,0.61-0.439,1.24-0.569,1.88c-0.13,0.64-0.19,1.3-0.19,1.95
			c0,0.649,0.061,1.31,0.19,1.95c0.13,0.639,0.319,1.269,0.569,1.868c0.25,0.61,0.561,1.19,0.921,1.73
			c0.369,0.55,0.79,1.06,1.25,1.52c0.46,0.461,0.97,0.881,1.52,1.24c0.54,0.36,1.12,0.67,1.72,0.92c0.61,0.25,1.24,0.45,1.88,0.58
			S97.91,65,98.56,65c0.65,0,1.311-0.061,1.95-0.19c0.64-0.13,1.27-0.33,1.87-0.58c0.61-0.25,1.189-0.56,1.729-0.92
			c0.551-0.359,1.061-0.779,1.521-1.24c0.46-0.46,0.88-0.97,1.24-1.52c0.359-0.54,0.67-1.12,0.92-1.73
			c0.25-0.6,0.439-1.229,0.569-1.869c0.131-0.641,0.2-1.301,0.2-1.95C108.559,54.351,108.49,53.69,108.359,53.051z"/>
	</g>
</g>
<g>
</g>
<g>
</g>
<g>
</g>
<g>
</g>
<g>
</g>
<g>
</g>
<g>
</g>
<g>
</g>
<g>
</g>
<g>
</g>
<g>
</g>
<g>
</g>
<g>
</g>
<g>
</g>
<g>
</g>
</svg>
